<svg version="1.1" id="Layer_1" xmlns="http://www.w3.org/2000/svg" xmlns:xlink="http://www.w3.org/1999/xlink" x="0px" y="0px"
	 width="100%" viewBox="0 0 1024 496" enable-background="new 0 0 1024 496" xml:space="preserve">
<path fill="#000000" opacity="1.000000" stroke="none" 
	d="
M848.023315,244.370880 
	C850.445923,246.111862 852.600830,247.679901 854.791016,249.196930 
	C875.370422,263.451141 874.559753,287.340729 865.679321,305.038910 
	C860.230774,315.897766 850.189026,320.666565 838.593689,321.019836 
	C820.448425,321.572662 802.274841,321.205933 784.113281,321.206116 
	C782.655029,321.206116 781.060669,321.357666 780.306763,319.793457 
	C780.179565,318.687195 780.589783,317.869354 781.355774,317.536896 
	C787.550903,314.848114 787.943604,309.671265 787.919739,303.822113 
	C787.781799,269.998230 787.885254,236.173431 787.866211,202.348969 
	C787.861938,194.817123 789.728394,186.502228 780.159729,183.317780 
	C780.465210,180.503387 782.144470,180.354813 783.569946,180.362305 
	C801.039917,180.453979 818.566406,178.804855 835.962708,180.998749 
	C846.566772,182.336090 856.893494,185.455368 861.834351,196.356400 
	C869.481384,213.227875 865.162048,229.922287 848.984863,240.267960 
	C847.487244,241.225739 844.485718,241.726822 848.023315,244.370880 
M835.651794,301.057434 
	C837.069519,291.800934 836.577393,282.465302 836.917786,273.160339 
	C837.527588,256.487061 830.916077,244.044037 816.263550,236.026260 
	C816.263550,259.594391 816.257935,283.382843 816.283569,307.171265 
	C816.284607,308.154663 816.470215,309.170715 816.756775,310.114807 
	C817.690491,313.190491 818.687744,316.264923 822.585266,316.752167 
	C826.440430,317.234192 829.424377,315.786499 831.570312,312.596619 
	C833.750244,309.356171 834.783752,305.678375 835.651794,301.057434 
M821.278381,227.201599 
	C822.586792,228.223892 823.866638,229.285461 825.208740,230.261414 
	C830.078613,233.802658 831.100769,233.456680 832.920898,227.495041 
	C835.295776,219.716141 835.155823,211.735565 834.293091,203.793915 
	C833.703003,198.361923 832.842529,192.866257 829.547424,188.232269 
	C827.511169,185.368576 824.861694,183.287598 821.084961,184.469254 
	C817.434326,185.611420 816.020203,188.440857 816.046082,192.171112 
	C816.097839,199.646576 816.205444,207.125732 816.030457,214.597260 
	C815.918274,219.384689 817.303467,223.403992 821.278381,227.201599 
z"/>
<path fill="#000000" opacity="1.000000" stroke="none" 
	d="
M638.082092,263.092346 
	C636.096863,263.098663 634.595459,263.159668 633.098755,263.100555 
	C630.328064,262.991180 629.250366,264.315491 629.262390,267.032501 
	C629.322327,280.526489 629.301147,294.020874 629.307251,307.515106 
	C629.308655,310.660095 631.090332,312.752106 633.390076,314.588531 
	C634.640259,315.586823 636.527527,315.921600 636.965881,317.900818 
	C636.163513,320.201508 634.092407,319.876526 632.384338,319.888763 
	C621.056213,319.969910 609.727295,319.970428 598.398804,319.943481 
	C596.800659,319.939667 594.698669,320.323303 594.097473,318.331421 
	C593.447571,316.178406 595.684021,315.701019 596.984192,314.842865 
	C600.196228,312.722900 601.621399,309.717957 601.620483,305.965485 
	C601.611450,268.480927 601.593079,230.996384 601.578369,193.511841 
	C601.576721,189.199982 600.115662,185.710449 596.119202,183.577209 
	C594.962769,182.959900 593.685364,182.349350 593.767029,180.690170 
	C597.332886,178.198456 632.823242,178.099640 636.850342,180.560745 
	C636.830444,180.884033 636.918396,181.412598 636.761169,181.500000 
	C629.064819,185.777161 629.056091,192.890167 629.183289,200.461792 
	C629.471558,217.616669 629.388367,234.780670 629.209473,251.938400 
	C629.165039,256.202942 630.373108,258.005524 634.869934,257.740204 
	C640.348694,257.416962 645.865234,257.526703 651.356995,257.707184 
	C654.867859,257.822540 656.036682,256.341766 656.023743,252.972214 
	C655.945496,232.647705 655.952698,212.322647 656.012573,191.998016 
	C656.023560,188.280579 654.595703,185.603333 651.369629,183.805603 
	C650.098145,183.097061 648.646240,182.481964 648.499756,180.734940 
	C652.492798,178.109161 687.810913,178.142761 691.693481,180.701080 
	C691.659302,181.022049 691.726074,181.545288 691.561157,181.632904 
	C684.398621,185.440247 683.911316,191.810715 683.966431,199.042496 
	C684.230164,233.692963 684.205872,268.346832 684.031433,302.998230 
	C684.002014,308.842133 685.043091,313.511322 690.694336,316.227356 
	C691.210144,316.475250 691.482056,317.230530 691.859680,317.739990 
	C688.636353,320.559692 653.911621,321.015564 648.515442,318.302948 
	C648.731323,317.739716 648.797241,316.806122 649.203369,316.621704 
	C655.922058,313.570892 656.307129,307.868744 656.139404,301.518829 
	C655.849060,290.530823 655.939636,279.528564 656.088745,268.535248 
	C656.143677,264.489258 654.745605,262.750793 650.558655,263.035522 
	C646.578857,263.306183 642.566223,263.093170 638.082092,263.092346 
z"/>
<path fill="#000000" opacity="1.000000" stroke="none" 
	d="
M312.581909,203.502457 
	C330.884125,233.369019 329.233490,276.962189 309.024109,302.916168 
	C288.563782,329.192444 257.799316,328.672791 238.178818,301.719482 
	C217.555328,273.388336 217.645004,227.608383 238.379578,199.209839 
	C259.034546,170.920334 293.564850,172.778854 312.581909,203.502457 
M292.447418,271.941650 
	C294.667847,252.810043 294.697266,233.743408 290.761719,214.793030 
	C289.061890,206.608002 287.076965,198.484894 282.175446,191.532364 
	C276.986237,184.171768 270.872040,184.302032 265.796112,191.673218 
	C263.223480,195.409180 261.478088,199.560364 260.189056,203.882263 
	C253.505661,226.290558 252.779129,249.106155 255.865021,272.119507 
	C257.240112,282.374390 259.333282,292.498138 264.483673,301.668365 
	C266.644257,305.515320 269.193420,309.277313 274.231140,309.197205 
	C279.018555,309.121094 281.410309,305.430389 283.550659,301.794769 
	C288.816315,292.850372 290.554230,282.826874 292.447418,271.941650 
z"/>
<path fill="#000000" opacity="1.000000" stroke="none" 
	d="
M477.000000,320.029114 
	C461.682953,319.886719 446.865814,319.755585 432.049347,319.566772 
	C431.445007,319.559052 430.822052,319.031982 430.776459,317.673676 
	C430.834290,317.565155 430.993469,316.702789 431.445129,316.503571 
	C438.370239,313.449371 438.812103,307.613007 438.779327,301.067993 
	C438.606476,266.570618 438.591217,232.071640 438.749664,197.574265 
	C438.779053,191.171158 438.188477,185.573059 431.608215,182.502930 
	C431.133850,182.281601 430.941315,181.456207 430.656982,180.977722 
	C431.683105,178.509171 433.732330,178.976700 435.446259,178.973328 
	C458.444885,178.928162 481.443848,178.983627 504.442139,178.881378 
	C508.370880,178.863922 510.334137,180.080215 510.194214,184.315369 
	C509.996246,190.308563 510.173035,196.313324 510.113617,202.312393 
	C510.097992,203.891144 510.445312,205.754242 508.266876,206.491089 
	C506.024841,206.067383 506.234863,204.150711 505.975128,202.600739 
	C503.188385,185.970490 487.603333,180.130676 473.790985,182.900314 
	C469.224609,183.815948 466.442627,187.401703 466.430817,192.424072 
	C466.392365,208.756241 466.447968,225.088867 466.344971,241.420532 
	C466.323120,244.887115 467.552521,245.848633 470.875122,244.951950 
	C477.385529,243.195007 481.529297,239.107895 483.701294,232.813095 
	C484.309235,231.051208 483.924561,228.774521 486.746765,227.325867 
	C486.746765,241.234985 486.746765,254.705673 486.746765,268.639435 
	C483.861328,267.409760 484.224640,265.156799 483.711884,263.391022 
	C481.767883,256.697052 477.265778,252.727234 470.638885,250.939331 
	C468.041504,250.238556 466.363220,250.653992 466.373230,253.809372 
	C466.429810,271.640137 466.405457,289.471497 466.551971,307.301422 
	C466.583252,311.109344 468.611359,313.923859 472.253387,315.373901 
	C484.613739,320.295227 500.984772,312.710571 505.262970,300.168243 
	C506.148224,297.572968 505.336670,294.410217 507.782074,292.312317 
	C510.349457,292.484192 510.081329,294.427887 510.095032,295.994080 
	C510.150360,302.326355 509.998169,308.661926 510.137512,314.991547 
	C510.219391,318.710236 508.499725,320.001892 504.997620,319.979309 
	C495.832245,319.920258 486.665924,320.003540 477.000000,320.029114 
z"/>
<path fill="#000000" opacity="1.000000" stroke="none" 
	d="
M526.806519,306.107452 
	C533.049072,314.016327 541.626099,316.926239 549.526733,314.044159 
	C558.000183,310.953186 561.958984,304.211212 561.816040,293.920044 
	C561.647400,281.783447 555.797607,272.334412 548.092407,263.690186 
	C541.884094,256.725250 535.537598,249.882034 529.403625,242.852768 
	C521.857300,234.204926 516.961426,224.341110 516.683533,212.633530 
	C516.327454,197.632812 523.236084,188.062943 537.565918,183.626755 
	C548.737671,180.168213 559.870117,179.977722 570.756470,184.723709 
	C573.872681,186.082199 576.295471,185.555603 578.229797,182.949158 
	C579.677856,180.998077 581.362305,180.664429 583.464539,181.559357 
	C585.478821,182.416855 585.285950,184.223831 585.101562,185.841721 
	C584.290955,192.952454 583.365295,200.050003 582.503723,207.155029 
	C582.206604,209.605621 581.167358,211.249161 578.422180,211.221527 
	C575.352539,211.190643 575.818359,208.810074 575.558289,206.919510 
	C574.484924,199.119095 570.964966,192.663498 564.643188,187.951187 
	C556.625366,181.974625 548.314148,184.395981 545.112061,193.810471 
	C540.741028,206.661774 544.529419,217.819214 553.392212,227.390549 
	C562.105774,236.800705 571.511108,245.594437 578.846191,256.204498 
	C585.673157,266.079651 590.987549,276.505554 590.346008,289.048920 
	C589.743469,300.830811 584.711731,309.959778 574.032654,315.211700 
	C559.795471,322.213531 544.873657,324.141632 529.430542,319.573883 
	C525.552246,318.426727 521.786194,316.759857 518.700684,321.228607 
	C517.745972,322.611267 515.980042,322.120300 514.532349,321.519287 
	C512.757019,320.782227 512.772339,319.284637 512.962891,317.737579 
	C514.020508,309.150635 514.937134,300.541748 516.255432,291.994843 
	C516.588318,289.836273 515.529724,285.938110 520.046631,286.404816 
	C524.156494,286.829437 523.208801,290.006958 523.088440,292.533875 
	C522.858887,297.354309 523.852356,301.798981 526.806519,306.107452 
z"/>
<path fill="#000000" opacity="1.000000" stroke="none" 
	d="
M414.023438,195.967590 
	C408.967957,191.772629 403.715576,188.653625 397.852722,186.507294 
	C394.652618,185.335754 393.093903,186.220673 392.867035,189.581772 
	C392.721619,191.736694 392.432007,193.890503 392.429016,196.045135 
	C392.380035,231.514893 392.422363,266.984924 392.289459,302.454315 
	C392.267456,308.330719 392.976044,313.455383 399.127533,316.095093 
	C399.867584,316.412659 400.381653,317.188263 400.242157,318.152435 
	C396.584717,320.785278 360.735840,320.797424 356.715485,318.103790 
	C356.860718,317.679565 356.891296,316.949738 357.187592,316.818146 
	C365.001831,313.347412 364.798615,306.598999 364.766022,299.538330 
	C364.607727,265.234833 364.679199,230.930267 364.668274,196.626083 
	C364.667938,195.626953 364.674683,194.627304 364.646637,193.628769 
	C364.425659,185.769516 362.404816,184.449081 355.174988,187.677780 
	C344.966187,192.236832 336.832275,199.048523 332.085266,209.439682 
	C331.606781,210.487076 331.104187,211.612747 330.316254,212.408524 
	C329.136597,213.599884 327.502960,213.541260 326.135254,212.794769 
	C324.857788,212.097534 325.251160,210.790146 325.641418,209.664536 
	C328.803772,200.544113 332.016541,191.440887 335.119843,182.300476 
	C335.950165,179.854874 337.537292,178.940125 339.991882,178.942001 
	C365.803131,178.961731 391.614380,178.958481 417.425629,178.946167 
	C419.671722,178.945099 421.284790,179.759842 421.977844,182.020416 
	C424.807037,191.248566 427.653198,200.471542 430.467896,209.704117 
	C430.860931,210.993301 431.264526,212.461533 429.450409,213.008072 
	C427.240417,213.673874 425.550171,212.990982 424.612213,210.738510 
	C422.271301,205.116714 418.851410,200.251816 414.023438,195.967590 
z"/>
<path fill="#000000" opacity="1.000000" stroke="none" 
	d="
M763.967529,274.000000 
	C763.972168,249.672485 763.974365,225.844986 763.981934,202.017471 
	C763.985962,189.468933 763.990173,189.468933 756.600586,181.092621 
	C759.589783,178.256744 772.624878,177.943268 776.866333,180.606125 
	C776.842346,180.929047 776.924500,181.454849 776.763794,181.544312 
	C769.295837,185.700302 769.143005,192.558640 769.201721,200.016785 
	C769.441956,230.507446 769.305237,261.001099 769.306824,291.493622 
	C769.307678,307.969055 760.814392,317.479889 744.322571,319.497162 
	C734.764771,320.666321 725.629028,319.287201 717.385254,314.217438 
	C706.030029,307.234314 702.025818,296.394531 702.035522,283.574707 
	C702.057556,254.581833 701.904846,225.588333 702.069092,196.596497 
	C702.103516,190.535934 701.552124,185.279953 695.294312,182.437714 
	C694.796997,182.211853 694.552063,181.430267 694.195679,180.915375 
	C697.525391,178.330795 732.741272,177.995239 737.500854,180.378250 
	C737.782837,181.301224 737.494080,182.179230 736.706848,182.530670 
	C730.610657,185.252045 730.028015,190.343521 730.058350,196.233002 
	C730.216980,227.057938 730.122681,257.884186 730.121704,288.709961 
	C730.121643,290.375916 730.137512,292.043091 730.200012,293.707672 
	C730.611450,304.674561 735.937622,309.754852 746.941833,309.697052 
	C756.185791,309.648499 763.544983,302.749969 763.887024,293.492279 
	C764.120667,287.169128 763.954773,280.831268 763.967529,274.000000 
z"/>
<path fill="#000000" opacity="1.000000" stroke="none" 
	d="
M161.549927,188.490433 
	C176.774139,215.022263 191.809540,241.239014 207.099579,267.899750 
	C208.382645,265.338074 207.929352,263.333221 207.932602,261.416901 
	C207.969650,239.591492 207.826096,217.764862 208.026962,195.941284 
	C208.079880,190.190552 207.370621,185.325989 201.551208,182.636795 
	C201.054459,182.407242 200.813187,181.624847 200.466965,181.119308 
	C203.765396,178.190323 216.880997,177.983276 220.885834,180.668793 
	C220.855042,180.991394 220.931519,181.509567 220.763824,181.606827 
	C213.652939,185.731888 213.191589,192.282257 213.237915,199.664490 
	C213.473175,237.149384 213.364349,274.636810 213.224747,312.122803 
	C213.215012,314.734894 215.063980,318.501160 210.681549,319.707672 
	C206.141327,320.957642 203.780212,318.438904 201.659897,314.700348 
	C187.033875,288.911835 172.246033,263.214996 157.499756,237.494705 
	C156.517685,235.781784 155.449707,234.118103 154.156982,231.997223 
	C152.816895,234.002991 153.229630,235.813141 153.227798,237.479187 
	C153.203995,259.138000 153.370056,280.798431 153.137466,302.454712 
	C153.073288,308.429962 153.978867,313.360748 159.801025,316.255707 
	C160.313583,316.510559 160.582214,317.255981 160.953659,317.759338 
	C157.750748,320.684082 145.183304,321.032288 140.346100,318.443115 
	C139.982819,317.298309 140.459717,316.346313 141.410980,315.920868 
	C147.073349,313.388550 147.881363,308.739471 147.862106,303.131226 
	C147.728851,264.312378 147.779617,225.492676 147.890778,186.673599 
	C147.898422,184.000458 146.304993,180.280548 150.669846,179.161880 
	C154.808273,178.101288 157.268204,180.255112 158.924911,183.814453 
	C159.625641,185.319901 160.542480,186.724762 161.549927,188.490433 
z"/>
</svg>